<svg width="125" height="30" viewBox="0 0 125 30" fill="none" xmlns="http://www.w3.org/2000/svg">
<path d="M6.50251 24.5C5.25926 24.5 4.14688 24.275 3.16537 23.8251C2.20022 23.3752 1.43955 22.7177 0.88336 21.8525C0.32717 20.9873 0.032717 19.9403 0 18.7117H3.5089C3.52526 19.2482 3.65613 19.7327 3.90151 20.1653C4.14688 20.5979 4.49041 20.944 4.93209 21.2036C5.37377 21.4458 5.89724 21.5669 6.50251 21.5669C7.00962 21.5669 7.45948 21.4804 7.85209 21.3074C8.24469 21.117 8.54732 20.8575 8.75998 20.5287C8.97265 20.1999 9.07898 19.8106 9.07898 19.3607C9.07898 18.8242 8.95629 18.383 8.71091 18.0369C8.46553 17.6908 8.13018 17.3966 7.70486 17.1544C7.27954 16.9121 6.78878 16.6958 6.23259 16.5055C5.6764 16.2978 5.09568 16.0902 4.49041 15.8825C3.16537 15.398 2.15114 14.775 1.44773 14.0137C0.744312 13.235 0.392604 12.2054 0.392604 10.9249C0.392604 9.8347 0.637982 8.90027 1.12874 8.12158C1.61949 7.3429 2.30655 6.7459 3.18991 6.3306C4.07327 5.9153 5.07932 5.70765 6.20806 5.70765C7.36951 5.70765 8.39192 5.92395 9.27528 6.35656C10.1586 6.77186 10.8539 7.3775 11.361 8.1735C11.8681 8.96949 12.138 9.90392 12.1707 10.9768H8.61276C8.5964 10.5788 8.49007 10.2067 8.29377 9.86066C8.09746 9.49727 7.81937 9.21175 7.45948 9.0041C7.0996 8.77914 6.67427 8.66667 6.18352 8.66667C5.74184 8.64936 5.34923 8.71858 5.00571 8.87432C4.66218 9.03005 4.38408 9.26366 4.17142 9.57514C3.97512 9.86931 3.87697 10.2413 3.87697 10.6913C3.87697 11.1239 3.97512 11.4872 4.17142 11.7814C4.36772 12.0756 4.64582 12.3352 5.00571 12.5601C5.38195 12.7678 5.80727 12.9668 6.28167 13.1571C6.77243 13.3301 7.30408 13.5118 7.87663 13.7022C8.74363 14.0137 9.52884 14.3857 10.2323 14.8183C10.952 15.2336 11.5246 15.7787 11.9499 16.4536C12.3752 17.1284 12.5879 18.0196 12.5879 19.127C12.5879 20.0788 12.3507 20.9613 11.8763 21.7746C11.4182 22.5879 10.7394 23.2454 9.83965 23.7473C8.93993 24.2491 7.82755 24.5 6.50251 24.5Z" fill="black"/>
<path d="M18.7122 24.1885C17.8452 24.1885 17.0845 24.0501 16.4301 23.7732C15.7922 23.4791 15.2932 23.0032 14.9333 22.3456C14.5735 21.6708 14.3935 20.7536 14.3935 19.5943V14.2213H12.3078V11.2883H14.3935L14.7616 7.78415H17.7061V11.2883H20.9451V14.2213H17.7061V19.6462C17.7061 20.2345 17.8288 20.6412 18.0742 20.8661C18.3196 21.0911 18.7367 21.2036 19.3256 21.2036H20.8715V24.1885H18.7122Z" fill="black"/>
<path d="M27.1056 24.5C25.9442 24.5 24.889 24.2145 23.9402 23.6434C23.0078 23.0724 22.2635 22.2764 21.7073 21.2555C21.1511 20.2345 20.873 19.0665 20.873 17.7514C20.873 16.4189 21.1511 15.2423 21.7073 14.2213C22.2635 13.2004 23.016 12.4044 23.9648 11.8333C24.9136 11.2623 25.9687 10.9768 27.1301 10.9768C28.3243 10.9768 29.3876 11.2623 30.3201 11.8333C31.2689 12.4044 32.0132 13.2004 32.553 14.2213C33.1092 15.225 33.3873 16.4016 33.3873 17.7514C33.3873 19.0665 33.1092 20.2345 32.553 21.2555C32.0132 22.2764 31.2689 23.0724 30.3201 23.6434C29.3713 24.2145 28.2998 24.5 27.1056 24.5ZM27.1301 21.4631C27.6536 21.4631 28.128 21.3247 28.5533 21.0478C28.995 20.7709 29.3467 20.3556 29.6085 19.8019C29.8866 19.2482 30.0256 18.5647 30.0256 17.7514C30.0256 16.9208 29.8947 16.2286 29.633 15.6749C29.3713 15.1211 29.0196 14.7058 28.5779 14.429C28.1526 14.1521 27.6782 14.0137 27.1547 14.0137C26.6312 14.0137 26.1486 14.1521 25.707 14.429C25.2653 14.7058 24.9136 15.1211 24.6518 15.6749C24.3901 16.2286 24.2592 16.9208 24.2592 17.7514C24.2592 18.5647 24.3901 19.2482 24.6518 19.8019C24.9136 20.3556 25.2571 20.7709 25.6824 21.0478C26.1241 21.3247 26.6067 21.4631 27.1301 21.4631Z" fill="black"/>
<path d="M34.1326 24.1885V11.2883H37.0771L37.3961 13.7022C37.6906 13.1485 38.0505 12.6726 38.4758 12.2746C38.9175 11.8593 39.4164 11.5392 39.9726 11.3142C40.5452 11.0893 41.175 10.9768 41.862 10.9768V14.6885H40.9296C40.4225 14.6885 39.9481 14.7491 39.5064 14.8702C39.0811 14.9913 38.713 15.1903 38.4022 15.4672C38.0914 15.7441 37.8542 16.1248 37.6906 16.6093C37.527 17.0765 37.4452 17.6735 37.4452 18.4003V24.1885H34.1326Z" fill="black"/>
<path d="M47.6905 24.5C46.4473 24.5 45.3431 24.2231 44.3779 23.6694C43.4291 23.0984 42.6848 22.3197 42.145 21.3333C41.6051 20.3297 41.3352 19.1703 41.3352 17.8552C41.3352 16.5055 41.597 15.3201 42.1204 14.2992C42.6603 13.2609 43.4046 12.4476 44.3534 11.8593C45.3185 11.2709 46.4391 10.9768 47.715 10.9768C48.9256 10.9768 49.9889 11.2623 50.9049 11.8333C51.8374 12.3871 52.5572 13.1398 53.0643 14.0915C53.5877 15.0433 53.8495 16.1334 53.8495 17.362C53.8495 17.5351 53.8413 17.7254 53.8249 17.9331C53.8249 18.1407 53.8168 18.3657 53.8004 18.6079H43.7154V16.4536H50.4878C50.4387 15.6576 50.1525 15.0173 49.629 14.5328C49.1219 14.0483 48.4839 13.806 47.715 13.806C47.1425 13.806 46.619 13.9444 46.1446 14.2213C45.6702 14.4809 45.294 14.8789 45.0159 15.4153C44.7378 15.9517 44.5987 16.6352 44.5987 17.4658V18.2186C44.5987 18.9107 44.7296 19.5164 44.9913 20.0355C45.2531 20.5373 45.613 20.9353 46.071 21.2295C46.5454 21.5064 47.0771 21.6448 47.666 21.6448C48.2712 21.6448 48.7783 21.5064 49.1873 21.2295C49.5963 20.9353 49.9071 20.5633 50.1197 20.1134H53.4814C53.2524 20.944 52.868 21.6881 52.3281 22.3456C51.7883 23.0032 51.1258 23.531 50.3406 23.929C49.5554 24.3097 48.672 24.5 47.6905 24.5Z" fill="black"/>
<path d="M65.2733 24.1885V6.01913H68.5859V24.1885H65.2733ZM54.4522 24.1885V6.01913H57.7648V24.1885H54.4522ZM57.3231 16.3238V13.4945H65.8377V16.3238H57.3231Z" fill="black"/>
<path d="M74.3023 24.5C73.2881 24.5 72.4211 24.275 71.7013 23.8251C70.9979 23.3752 70.458 22.709 70.0818 21.8265C69.7219 20.9267 69.542 19.8365 69.542 18.556V11.2883H72.8546V18.2186C72.8546 19.2914 73.0509 20.1134 73.4435 20.6844C73.8524 21.2555 74.5068 21.541 75.4065 21.541C75.9627 21.541 76.4616 21.4026 76.9033 21.1257C77.345 20.8315 77.6885 20.4249 77.9339 19.9057C78.1793 19.3693 78.3019 18.7204 78.3019 17.959V11.2883H81.6145V24.1885H78.6945L78.4492 22.0342C78.0566 22.7782 77.5086 23.3752 76.8051 23.8251C76.1017 24.275 75.2674 24.5 74.3023 24.5Z" fill="black"/>
<path d="M90.0373 24.5C89.4321 24.5 88.8759 24.4221 88.3688 24.2664C87.878 24.1107 87.4363 23.8857 87.0437 23.5915C86.6511 23.2801 86.3158 22.9167 86.0377 22.5014L85.6696 24.1885H82.7251V5.5H86.0377V13.0792C86.4139 12.5255 86.921 12.041 87.559 11.6257C88.197 11.1931 89.0231 10.9768 90.0373 10.9768C91.1824 10.9768 92.1966 11.2709 93.08 11.8593C93.9797 12.4476 94.6913 13.2523 95.2148 14.2732C95.7383 15.2942 96 16.4622 96 17.7773C96 19.0578 95.7383 20.2086 95.2148 21.2295C94.6913 22.2505 93.9797 23.0551 93.08 23.6434C92.1966 24.2145 91.1824 24.5 90.0373 24.5ZM89.3012 21.4372C89.9392 21.4372 90.5117 21.2814 91.0188 20.9699C91.5259 20.6585 91.9186 20.2259 92.1967 19.6721C92.4911 19.1184 92.6383 18.4781 92.6383 17.7514C92.6383 17.0419 92.4911 16.4103 92.1967 15.8566C91.9186 15.2855 91.5259 14.8443 91.0188 14.5328C90.5117 14.204 89.9392 14.0396 89.3012 14.0396C88.6469 14.0396 88.0661 14.204 87.559 14.5328C87.0519 14.8443 86.6511 15.2769 86.3567 15.8306C86.0786 16.3843 85.9395 17.0246 85.9395 17.7514C85.9395 18.4608 86.0786 19.1011 86.3567 19.6721C86.6511 20.2259 87.0519 20.6585 87.559 20.9699C88.0661 21.2814 88.6469 21.4372 89.3012 21.4372Z" fill="black"/>
<path d="M118.958 8.95866H115.333V7.75033C115.333 6.46845 114.824 5.23907 113.917 4.33264C113.011 3.42622 111.782 2.91699 110.5 2.91699C109.218 2.91699 107.988 3.42622 107.082 4.33264C106.176 5.23907 105.666 6.46845 105.666 7.75033V8.95866H102.041C101.721 8.95866 101.414 9.08597 101.187 9.31257C100.96 9.53918 100.833 9.84652 100.833 10.167V23.4587C100.833 24.4201 101.215 25.3421 101.895 26.0219C102.575 26.7017 103.497 27.0837 104.458 27.0837H116.541C117.503 27.0837 118.425 26.7017 119.105 26.0219C119.784 25.3421 120.166 24.4201 120.166 23.4587V10.167C120.166 9.84652 120.039 9.53918 119.812 9.31257C119.586 9.08597 119.278 8.95866 118.958 8.95866ZM108.083 7.75033C108.083 7.10939 108.338 6.4947 108.791 6.04148C109.244 5.58827 109.859 5.33366 110.5 5.33366C111.141 5.33366 111.755 5.58827 112.209 6.04148C112.662 6.4947 112.916 7.10939 112.916 7.75033V8.95866H108.083V7.75033ZM117.75 23.4587C117.75 23.7791 117.622 24.0865 117.396 24.3131C117.169 24.5397 116.862 24.667 116.541 24.667H104.458C104.138 24.667 103.83 24.5397 103.604 24.3131C103.377 24.0865 103.25 23.7791 103.25 23.4587V11.3753H105.666V12.5837C105.666 12.9041 105.794 13.2115 106.02 13.4381C106.247 13.6647 106.554 13.792 106.875 13.792C107.195 13.792 107.502 13.6647 107.729 13.4381C107.956 13.2115 108.083 12.9041 108.083 12.5837V11.3753H112.916V12.5837C112.916 12.9041 113.044 13.2115 113.27 13.4381C113.497 13.6647 113.804 13.792 114.125 13.792C114.445 13.792 114.752 13.6647 114.979 13.4381C115.206 13.2115 115.333 12.9041 115.333 12.5837V11.3753H117.75V23.4587Z" fill="black"/>
<circle cx="107.815" cy="19.8337" r="2.14815" fill="#FE5B13"/>
<circle cx="113.185" cy="19.8337" r="2.14815" fill="#FE5B13"/>
</svg>
